<?xml version="1.0" encoding="utf-8" standalone="no"?>
<!DOCTYPE svg PUBLIC "-//W3C//DTD SVG 1.1//EN"
  "http://www.w3.org/Graphics/SVG/1.1/DTD/svg11.dtd">
<svg xmlns:xlink="http://www.w3.org/1999/xlink" width="357.12pt" height="266.112pt" viewBox="0 0 357.12 266.112" xmlns="http://www.w3.org/2000/svg" version="1.1">
 <metadata>
  <rdf:RDF xmlns:dc="http://purl.org/dc/elements/1.1/" xmlns:cc="http://creativecommons.org/ns#" xmlns:rdf="http://www.w3.org/1999/02/22-rdf-syntax-ns#">
   <cc:Work>
    <dc:type rdf:resource="http://purl.org/dc/dcmitype/StillImage"/>
    <dc:date>2024-01-22T22:04:31.917920</dc:date>
    <dc:format>image/svg+xml</dc:format>
    <dc:creator>
     <cc:Agent>
      <dc:title>Matplotlib v3.8.2, https://matplotlib.org/</dc:title>
     </cc:Agent>
    </dc:creator>
   </cc:Work>
  </rdf:RDF>
 </metadata>
 <defs>
  <style type="text/css">*{stroke-linejoin: round; stroke-linecap: butt}</style>
 </defs>
 <g id="figure_1">
  <g id="patch_1">
   <path d="M 0 266.112 
L 357.12 266.112 
L 357.12 0 
L 0 0 
z
" style="fill: #ffffff"/>
  </g>
  <g id="axes_1">
   <g id="patch_2">
    <path d="M 0 266.112 
L 180.558283 266.112 
L 180.558283 -0 
L 0 -0 
z
" clip-path="url(#p86b9e06840)" style="fill: #d99850"/>
   </g>
   <g id="patch_3">
    <path d="M 180.558283 266.112 
L 357.12 266.112 
L 357.12 98.397634 
L 180.558283 98.397634 
z
" clip-path="url(#p86b9e06840)" style="fill: #c43b39"/>
   </g>
   <g id="patch_4">
    <path d="M 180.558283 98.397634 
L 282.164542 98.397634 
L 282.164542 -0 
L 180.558283 -0 
z
" clip-path="url(#p86b9e06840)" style="fill: #d7ccb5"/>
   </g>
   <g id="patch_5">
    <path d="M 282.164542 98.397634 
L 357.12 98.397634 
L 357.12 -0 
L 282.164542 -0 
z
" clip-path="url(#p86b9e06840)" style="fill: #ab8f54"/>
   </g>
   <g id="text_1">
    <!-- UHI with water (51%) -->
    <g transform="translate(45.139571 133.056) scale(0.1 -0.1)">
     <defs>
      <path id="Georgia-55" d="M 4791 4213 
Q 4703 4209 4534 4175 
Q 4366 4141 4259 4072 
Q 4153 4000 4112 3775 
Q 4072 3550 4072 3225 
L 4072 1297 
Q 4072 928 3919 656 
Q 3766 384 3516 209 
Q 3269 41 2995 -32 
Q 2722 -106 2472 -106 
Q 2072 -106 1759 -1 
Q 1447 103 1234 281 
Q 1025 459 919 689 
Q 813 919 813 1169 
L 813 3791 
Q 813 3900 777 3973 
Q 741 4047 631 4109 
Q 553 4153 431 4179 
Q 309 4206 231 4213 
L 231 4434 
L 2078 4434 
L 2078 4213 
Q 1991 4209 1858 4184 
Q 1725 4159 1663 4138 
Q 1556 4100 1520 4012 
Q 1484 3925 1484 3822 
L 1484 1372 
Q 1484 1194 1523 998 
Q 1563 803 1678 634 
Q 1800 463 2009 353 
Q 2219 244 2584 244 
Q 2928 244 3161 353 
Q 3394 463 3528 641 
Q 3656 809 3709 993 
Q 3763 1178 3763 1366 
L 3763 3184 
Q 3763 3531 3713 3751 
Q 3663 3972 3566 4041 
Q 3456 4119 3267 4162 
Q 3078 4206 2978 4213 
L 2978 4434 
L 4791 4434 
L 4791 4213 
z
" transform="scale(0.015625)"/>
      <path id="Georgia-48" d="M 4897 0 
L 3056 0 
L 3056 222 
Q 3131 228 3273 240 
Q 3416 253 3469 278 
Q 3563 316 3606 392 
Q 3650 469 3650 591 
L 3650 2169 
L 1566 2169 
L 1566 625 
Q 1566 516 1602 441 
Q 1638 366 1744 309 
Q 1797 281 1933 253 
Q 2069 225 2147 222 
L 2147 0 
L 306 0 
L 306 222 
Q 381 228 523 240 
Q 666 253 719 278 
Q 813 316 856 392 
Q 900 469 900 591 
L 900 3791 
Q 900 3891 859 3973 
Q 819 4056 719 4103 
Q 634 4144 514 4175 
Q 394 4206 306 4213 
L 306 4434 
L 2147 4434 
L 2147 4213 
Q 2059 4209 1932 4184 
Q 1806 4159 1744 4138 
Q 1638 4100 1602 4012 
Q 1566 3925 1566 3822 
L 1566 2447 
L 3650 2447 
L 3650 3791 
Q 3650 3891 3609 3973 
Q 3569 4056 3469 4103 
Q 3384 4144 3264 4175 
Q 3144 4206 3056 4213 
L 3056 4434 
L 4897 4434 
L 4897 4213 
Q 4809 4209 4682 4184 
Q 4556 4159 4494 4138 
Q 4388 4100 4352 4012 
Q 4316 3925 4316 3822 
L 4316 625 
Q 4316 516 4352 441 
Q 4388 366 4494 309 
Q 4547 281 4683 253 
Q 4819 225 4897 222 
L 4897 0 
z
" transform="scale(0.015625)"/>
      <path id="Georgia-49" d="M 2244 0 
L 247 0 
L 247 222 
Q 331 228 490 240 
Q 650 253 716 278 
Q 819 319 866 389 
Q 913 459 913 584 
L 913 3797 
Q 913 3906 878 3979 
Q 844 4053 716 4103 
Q 622 4141 480 4173 
Q 338 4206 247 4213 
L 247 4434 
L 2244 4434 
L 2244 4213 
Q 2147 4209 2012 4189 
Q 1878 4169 1778 4138 
Q 1659 4100 1618 4015 
Q 1578 3931 1578 3828 
L 1578 619 
Q 1578 516 1623 436 
Q 1669 356 1778 309 
Q 1844 284 1992 254 
Q 2141 225 2244 222 
L 2244 0 
z
" transform="scale(0.015625)"/>
      <path id="Georgia-20" transform="scale(0.015625)"/>
      <path id="Georgia-77" d="M 4816 2881 
Q 4684 2869 4532 2772 
Q 4381 2675 4313 2481 
Q 4156 2022 4017 1611 
Q 3878 1200 3706 688 
Q 3650 525 3592 337 
Q 3534 150 3488 -22 
L 3219 -22 
L 2391 2247 
L 1556 -22 
L 1300 -22 
Q 1066 672 842 1355 
Q 619 2038 447 2544 
Q 397 2691 256 2775 
Q 116 2859 -16 2875 
L -16 3081 
L 1359 3081 
L 1359 2863 
Q 1256 2859 1136 2828 
Q 1016 2797 1016 2725 
Q 1016 2713 1027 2672 
Q 1038 2631 1053 2584 
Q 1153 2256 1279 1851 
Q 1406 1447 1606 800 
L 2394 3019 
L 2694 3019 
L 3497 831 
Q 3631 1250 3764 1642 
Q 3897 2034 3997 2378 
Q 4019 2459 4039 2526 
Q 4059 2594 4059 2659 
Q 4059 2716 4009 2759 
Q 3959 2803 3888 2831 
Q 3825 2856 3751 2868 
Q 3678 2881 3644 2881 
L 3644 3081 
L 4816 3081 
L 4816 2881 
z
" transform="scale(0.015625)"/>
      <path id="Georgia-69" d="M 1722 0 
L 231 0 
L 231 206 
Q 303 213 379 219 
Q 456 225 513 244 
Q 600 272 642 342 
Q 684 413 684 525 
L 684 2428 
Q 684 2528 639 2611 
Q 594 2694 513 2750 
Q 453 2788 340 2814 
Q 228 2841 134 2847 
L 134 3050 
L 1222 3119 
L 1266 3075 
L 1266 563 
Q 1266 453 1308 381 
Q 1350 309 1441 275 
Q 1509 247 1575 230 
Q 1641 213 1722 206 
L 1722 0 
z
M 1328 4334 
Q 1328 4156 1211 4023 
Q 1094 3891 922 3891 
Q 763 3891 645 4017 
Q 528 4144 528 4306 
Q 528 4478 645 4606 
Q 763 4734 922 4734 
Q 1100 4734 1214 4614 
Q 1328 4494 1328 4334 
z
" transform="scale(0.015625)"/>
      <path id="Georgia-74" d="M 2128 134 
Q 1925 50 1744 -8 
Q 1563 -66 1300 -66 
Q 913 -66 755 129 
Q 597 325 597 681 
L 597 2769 
L 41 2769 
L 41 3069 
L 609 3069 
L 609 4028 
L 1178 4028 
L 1178 3069 
L 2063 3069 
L 2063 2769 
L 1184 2769 
L 1184 1047 
Q 1184 853 1198 723 
Q 1213 594 1266 497 
Q 1316 406 1416 359 
Q 1516 313 1684 313 
Q 1763 313 1914 327 
Q 2066 341 2128 363 
L 2128 134 
z
" transform="scale(0.015625)"/>
      <path id="Georgia-68" d="M 3572 0 
L 2059 0 
L 2059 206 
Q 2131 213 2218 219 
Q 2306 225 2363 244 
Q 2450 272 2492 342 
Q 2534 413 2534 525 
L 2534 2109 
Q 2534 2438 2379 2616 
Q 2225 2794 2003 2794 
Q 1841 2794 1702 2742 
Q 1563 2691 1453 2616 
Q 1347 2538 1290 2459 
Q 1234 2381 1203 2328 
L 1203 556 
Q 1203 450 1245 381 
Q 1288 313 1375 275 
Q 1444 244 1517 228 
Q 1591 213 1678 206 
L 1678 0 
L 166 0 
L 166 206 
Q 238 213 316 220 
Q 394 228 447 244 
Q 534 272 578 342 
Q 622 413 622 525 
L 622 4113 
Q 622 4219 573 4325 
Q 525 4431 447 4484 
Q 391 4525 248 4542 
Q 106 4559 19 4566 
L 19 4766 
L 1159 4838 
L 1203 4791 
L 1203 2641 
L 1216 2641 
Q 1319 2744 1403 2823 
Q 1488 2903 1625 2991 
Q 1744 3066 1905 3116 
Q 2066 3166 2266 3166 
Q 2678 3166 2900 2905 
Q 3122 2644 3122 2153 
L 3122 550 
Q 3122 441 3161 373 
Q 3200 306 3291 269 
Q 3363 241 3420 227 
Q 3478 213 3572 206 
L 3572 0 
z
" transform="scale(0.015625)"/>
      <path id="Georgia-61" d="M 3144 56 
Q 2997 3 2886 -30 
Q 2775 -63 2634 -63 
Q 2391 -63 2245 51 
Q 2100 166 2059 384 
L 2041 384 
Q 1838 159 1605 40 
Q 1372 -78 1044 -78 
Q 697 -78 473 134 
Q 250 347 250 691 
Q 250 869 300 1009 
Q 350 1150 450 1263 
Q 528 1356 656 1429 
Q 784 1503 897 1547 
Q 1038 1600 1467 1744 
Q 1897 1888 2047 1969 
L 2047 2278 
Q 2047 2319 2030 2434 
Q 2013 2550 1956 2653 
Q 1894 2769 1780 2855 
Q 1666 2941 1456 2941 
Q 1313 2941 1189 2892 
Q 1066 2844 1016 2791 
Q 1016 2728 1045 2606 
Q 1075 2484 1075 2381 
Q 1075 2272 976 2181 
Q 878 2091 703 2091 
Q 547 2091 473 2202 
Q 400 2313 400 2450 
Q 400 2594 501 2725 
Q 603 2856 766 2959 
Q 906 3047 1106 3108 
Q 1306 3169 1497 3169 
Q 1759 3169 1954 3133 
Q 2150 3097 2309 2978 
Q 2469 2863 2551 2664 
Q 2634 2466 2634 2153 
Q 2634 1706 2625 1361 
Q 2616 1016 2616 606 
Q 2616 484 2658 412 
Q 2700 341 2788 291 
Q 2834 263 2936 259 
Q 3038 256 3144 256 
L 3144 56 
z
M 2053 1706 
Q 1788 1628 1588 1553 
Q 1388 1478 1216 1366 
Q 1059 1259 968 1114 
Q 878 969 878 769 
Q 878 509 1014 387 
Q 1150 266 1359 266 
Q 1581 266 1750 373 
Q 1919 481 2034 628 
L 2053 1706 
z
" transform="scale(0.015625)"/>
      <path id="Georgia-65" d="M 2963 725 
Q 2769 356 2444 137 
Q 2119 -81 1697 -81 
Q 1325 -81 1045 50 
Q 766 181 584 406 
Q 403 631 314 931 
Q 225 1231 225 1566 
Q 225 1866 320 2155 
Q 416 2444 600 2675 
Q 778 2897 1042 3033 
Q 1306 3169 1634 3169 
Q 1972 3169 2212 3062 
Q 2453 2956 2603 2772 
Q 2747 2597 2817 2359 
Q 2888 2122 2888 1844 
L 2888 1638 
L 847 1638 
Q 847 1334 905 1087 
Q 963 841 1088 653 
Q 1209 472 1406 367 
Q 1603 263 1875 263 
Q 2153 263 2354 392 
Q 2556 522 2744 859 
L 2963 725 
z
M 2272 1900 
Q 2272 2075 2242 2275 
Q 2213 2475 2147 2609 
Q 2075 2753 1950 2843 
Q 1825 2934 1628 2934 
Q 1300 2934 1083 2661 
Q 866 2388 847 1900 
L 2272 1900 
z
" transform="scale(0.015625)"/>
      <path id="Georgia-72" d="M 2584 2684 
Q 2584 2525 2506 2401 
Q 2428 2278 2266 2278 
Q 2091 2278 1998 2368 
Q 1906 2459 1906 2569 
Q 1906 2638 1917 2694 
Q 1928 2750 1938 2806 
Q 1791 2806 1594 2687 
Q 1397 2569 1259 2350 
L 1259 556 
Q 1259 447 1301 378 
Q 1344 309 1434 275 
Q 1513 244 1636 228 
Q 1759 213 1850 206 
L 1850 0 
L 225 0 
L 225 206 
Q 297 213 373 219 
Q 450 225 506 244 
Q 594 272 636 342 
Q 678 413 678 525 
L 678 2428 
Q 678 2525 633 2619 
Q 588 2713 506 2769 
Q 447 2806 365 2823 
Q 284 2841 191 2847 
L 191 3050 
L 1216 3119 
L 1259 3075 
L 1259 2641 
L 1275 2641 
Q 1469 2894 1706 3025 
Q 1944 3156 2141 3156 
Q 2338 3156 2461 3028 
Q 2584 2900 2584 2684 
z
" transform="scale(0.015625)"/>
      <path id="Georgia-28" d="M 2191 -1025 
Q 1338 -919 852 -165 
Q 366 588 366 1863 
Q 366 3159 852 3917 
Q 1338 4675 2191 4788 
L 2191 4528 
Q 1591 4419 1278 3762 
Q 966 3106 966 1856 
Q 966 666 1272 5 
Q 1578 -656 2191 -769 
L 2191 -1025 
z
" transform="scale(0.015625)"/>
      <path id="Georgia-35" d="M 2634 1466 
Q 2841 1303 2977 1047 
Q 3113 791 3113 406 
Q 3113 -266 2653 -703 
Q 2194 -1141 1488 -1141 
Q 941 -1141 562 -881 
Q 184 -622 184 -278 
Q 184 -119 262 0 
Q 341 119 503 119 
Q 691 119 789 20 
Q 888 -78 888 -194 
Q 888 -294 853 -444 
Q 819 -594 800 -666 
Q 825 -688 881 -725 
Q 938 -763 1016 -797 
Q 1097 -831 1214 -857 
Q 1331 -884 1488 -884 
Q 1688 -884 1866 -803 
Q 2044 -722 2166 -563 
Q 2300 -388 2367 -164 
Q 2434 59 2434 403 
Q 2434 844 2189 1133 
Q 1944 1422 1544 1422 
Q 1294 1422 1076 1328 
Q 859 1234 688 1016 
L 478 1097 
L 744 3353 
L 2981 3353 
L 2981 2797 
L 997 2797 
L 834 1472 
Q 975 1572 1204 1670 
Q 1434 1769 1709 1769 
Q 1938 1769 2183 1698 
Q 2428 1628 2634 1466 
z
" transform="scale(0.015625)"/>
      <path id="Georgia-31" d="M 2528 0 
L 422 0 
L 422 222 
Q 516 228 714 248 
Q 913 269 988 291 
Q 1084 322 1136 392 
Q 1188 463 1188 603 
L 1188 2797 
L 409 2797 
L 409 3059 
L 581 3059 
Q 919 3059 1186 3184 
Q 1453 3309 1569 3453 
L 1828 3453 
Q 1819 3250 1809 2978 
Q 1800 2706 1800 2491 
L 1800 638 
Q 1800 528 1848 442 
Q 1897 356 1988 316 
Q 2069 281 2253 253 
Q 2438 225 2528 222 
L 2528 0 
z
" transform="scale(0.015625)"/>
      <path id="Georgia-25" d="M 2463 3384 
Q 2463 2834 2166 2531 
Q 1869 2228 1400 2228 
Q 931 2228 636 2531 
Q 341 2834 341 3384 
Q 341 3903 630 4222 
Q 919 4541 1403 4541 
Q 1881 4541 2172 4222 
Q 2463 3903 2463 3384 
z
M 1934 3384 
Q 1934 3791 1800 4050 
Q 1666 4309 1403 4309 
Q 1134 4309 1001 4050 
Q 869 3791 869 3384 
Q 869 2969 1003 2714 
Q 1138 2459 1400 2459 
Q 1663 2459 1798 2714 
Q 1934 2969 1934 3384 
z
M 4891 1056 
Q 4891 506 4594 203 
Q 4297 -100 3828 -100 
Q 3359 -100 3064 203 
Q 2769 506 2769 1056 
Q 2769 1575 3058 1894 
Q 3347 2213 3831 2213 
Q 4309 2213 4600 1894 
Q 4891 1575 4891 1056 
z
M 4363 1056 
Q 4363 1463 4228 1722 
Q 4094 1981 3831 1981 
Q 3563 1981 3430 1722 
Q 3297 1463 3297 1056 
Q 3297 641 3431 386 
Q 3566 131 3828 131 
Q 4091 131 4227 386 
Q 4363 641 4363 1056 
z
M 4684 4450 
L 1000 0 
L 569 0 
L 4244 4450 
L 4684 4450 
z
" transform="scale(0.015625)"/>
      <path id="Georgia-29" d="M 2034 1863 
Q 2034 588 1548 -165 
Q 1063 -919 209 -1025 
L 209 -769 
Q 822 -656 1128 5 
Q 1434 666 1434 1856 
Q 1434 3106 1121 3762 
Q 809 4419 209 4528 
L 209 4788 
Q 1063 4675 1548 3917 
Q 2034 3159 2034 1863 
z
" transform="scale(0.015625)"/>
     </defs>
     <use xlink:href="#Georgia-55"/>
     <use xlink:href="#Georgia-48" x="75.634766"/>
     <use xlink:href="#Georgia-49" x="157.128906"/>
     <use xlink:href="#Georgia-20" x="196.09375"/>
     <use xlink:href="#Georgia-77" x="220.214844"/>
     <use xlink:href="#Georgia-69" x="293.945312"/>
     <use xlink:href="#Georgia-74" x="323.242188"/>
     <use xlink:href="#Georgia-68" x="357.763672"/>
     <use xlink:href="#Georgia-20" x="415.966797"/>
     <use xlink:href="#Georgia-77" x="440.087891"/>
     <use xlink:href="#Georgia-61" x="513.818359"/>
     <use xlink:href="#Georgia-74" x="564.208984"/>
     <use xlink:href="#Georgia-65" x="598.730469"/>
     <use xlink:href="#Georgia-72" x="647.070312"/>
     <use xlink:href="#Georgia-20" x="688.037109"/>
     <use xlink:href="#Georgia-28" x="712.158203"/>
     <use xlink:href="#Georgia-35" x="749.658203"/>
     <use xlink:href="#Georgia-31" x="802.490234"/>
     <use xlink:href="#Georgia-25" x="845.458984"/>
     <use xlink:href="#Georgia-29" x="927.197266"/>
    </g>
   </g>
   <g id="text_2">
    <!-- UHI without water (31%) -->
    <g transform="translate(215.870627 182.254817) scale(0.1 -0.1)">
     <defs>
      <path id="Georgia-6f" d="M 3228 1572 
Q 3228 1247 3125 933 
Q 3022 619 2831 400 
Q 2616 150 2331 28 
Q 2047 -94 1694 -94 
Q 1400 -94 1134 17 
Q 869 128 663 341 
Q 459 550 339 851 
Q 219 1153 219 1528 
Q 219 2250 639 2709 
Q 1059 3169 1741 3169 
Q 2388 3169 2808 2733 
Q 3228 2297 3228 1572 
z
M 2581 1566 
Q 2581 1800 2534 2061 
Q 2488 2322 2394 2503 
Q 2294 2697 2131 2814 
Q 1969 2931 1734 2931 
Q 1494 2931 1323 2812 
Q 1153 2694 1047 2488 
Q 947 2297 906 2053 
Q 866 1809 866 1581 
Q 866 1281 914 1026 
Q 963 772 1069 572 
Q 1175 372 1336 258 
Q 1497 144 1734 144 
Q 2125 144 2353 522 
Q 2581 900 2581 1566 
z
" transform="scale(0.015625)"/>
      <path id="Georgia-75" d="M 3528 56 
L 2525 -13 
L 2478 31 
L 2478 422 
L 2459 422 
Q 2384 344 2290 255 
Q 2197 166 2075 94 
Q 1934 9 1803 -34 
Q 1672 -78 1431 -78 
Q 1022 -78 808 189 
Q 594 456 594 966 
L 594 2441 
Q 594 2553 551 2629 
Q 509 2706 428 2763 
Q 372 2800 287 2817 
Q 203 2834 109 2841 
L 109 3044 
L 1138 3119 
L 1184 3075 
L 1184 934 
Q 1184 600 1334 431 
Q 1484 263 1694 263 
Q 1866 263 2000 316 
Q 2134 369 2225 441 
Q 2309 506 2373 579 
Q 2438 653 2472 716 
L 2472 2463 
Q 2472 2566 2428 2645 
Q 2384 2725 2306 2781 
Q 2250 2819 2139 2826 
Q 2028 2834 1891 2841 
L 1891 3044 
L 3009 3119 
L 3056 3075 
L 3056 628 
Q 3056 522 3100 447 
Q 3144 372 3222 319 
Q 3278 284 3356 273 
Q 3434 263 3528 259 
L 3528 56 
z
" transform="scale(0.015625)"/>
      <path id="Georgia-33" d="M 1522 -1141 
Q 1228 -1141 984 -1067 
Q 741 -994 566 -869 
Q 391 -744 295 -581 
Q 200 -419 200 -247 
Q 200 -94 275 29 
Q 350 153 516 153 
Q 703 153 801 61 
Q 900 -31 900 -150 
Q 900 -250 867 -403 
Q 834 -556 816 -622 
Q 838 -650 895 -697 
Q 953 -744 1038 -781 
Q 1138 -828 1247 -856 
Q 1356 -884 1556 -884 
Q 1744 -884 1917 -821 
Q 2091 -759 2222 -622 
Q 2359 -478 2436 -286 
Q 2513 -94 2513 219 
Q 2513 388 2477 553 
Q 2441 719 2344 841 
Q 2247 963 2080 1030 
Q 1913 1097 1656 1097 
L 1247 1097 
L 1247 1456 
L 1519 1456 
Q 1950 1456 2140 1693 
Q 2331 1931 2331 2409 
Q 2331 2800 2147 2998 
Q 1963 3197 1625 3197 
Q 1463 3197 1358 3158 
Q 1253 3119 1188 3081 
Q 1109 3038 1059 2984 
Q 1009 2931 984 2906 
Q 1006 2806 1037 2661 
Q 1069 2516 1069 2384 
Q 1069 2269 970 2176 
Q 872 2084 681 2084 
Q 516 2084 439 2203 
Q 363 2322 363 2478 
Q 363 2641 453 2809 
Q 544 2978 722 3125 
Q 900 3272 1156 3362 
Q 1413 3453 1747 3453 
Q 2131 3453 2382 3339 
Q 2634 3225 2778 3063 
Q 2919 2903 2972 2728 
Q 3025 2553 3025 2428 
Q 3025 2272 2981 2114 
Q 2938 1956 2838 1822 
Q 2728 1675 2548 1554 
Q 2369 1434 2097 1359 
L 2097 1309 
Q 2272 1294 2470 1231 
Q 2669 1169 2828 1047 
Q 2994 919 3100 717 
Q 3206 516 3206 206 
Q 3206 -394 2725 -767 
Q 2244 -1141 1522 -1141 
z
" transform="scale(0.015625)"/>
     </defs>
     <use xlink:href="#Georgia-55"/>
     <use xlink:href="#Georgia-48" x="75.634766"/>
     <use xlink:href="#Georgia-49" x="157.128906"/>
     <use xlink:href="#Georgia-20" x="196.09375"/>
     <use xlink:href="#Georgia-77" x="220.214844"/>
     <use xlink:href="#Georgia-69" x="293.945312"/>
     <use xlink:href="#Georgia-74" x="323.242188"/>
     <use xlink:href="#Georgia-68" x="357.763672"/>
     <use xlink:href="#Georgia-6f" x="415.966797"/>
     <use xlink:href="#Georgia-75" x="469.873047"/>
     <use xlink:href="#Georgia-74" x="527.392578"/>
     <use xlink:href="#Georgia-20" x="561.914062"/>
     <use xlink:href="#Georgia-77" x="586.035156"/>
     <use xlink:href="#Georgia-61" x="659.765625"/>
     <use xlink:href="#Georgia-74" x="710.15625"/>
     <use xlink:href="#Georgia-65" x="744.677734"/>
     <use xlink:href="#Georgia-72" x="793.017578"/>
     <use xlink:href="#Georgia-20" x="833.984375"/>
     <use xlink:href="#Georgia-28" x="858.105469"/>
     <use xlink:href="#Georgia-33" x="895.605469"/>
     <use xlink:href="#Georgia-31" x="950.78125"/>
     <use xlink:href="#Georgia-25" x="993.75"/>
     <use xlink:href="#Georgia-29" x="1075.488281"/>
    </g>
   </g>
   <g id="text_3">
    <!-- Rural with water (11%) -->
    <g transform="translate(180.558283 49.198817) scale(0.1 -0.1)">
     <defs>
      <path id="Georgia-52" d="M 4625 0 
L 3431 0 
Q 3034 622 2714 1075 
Q 2394 1528 2019 2009 
L 1566 2009 
L 1566 603 
Q 1566 494 1600 411 
Q 1634 328 1747 284 
Q 1803 263 1943 244 
Q 2084 225 2181 222 
L 2181 0 
L 306 0 
L 306 222 
Q 381 228 523 243 
Q 666 259 722 284 
Q 816 325 858 403 
Q 900 481 900 603 
L 900 3809 
Q 900 3919 869 4003 
Q 838 4088 722 4131 
Q 644 4159 519 4182 
Q 394 4206 306 4213 
L 306 4434 
L 2353 4434 
Q 2634 4434 2881 4376 
Q 3128 4319 3328 4191 
Q 3522 4066 3637 3864 
Q 3753 3663 3753 3378 
Q 3753 3122 3675 2925 
Q 3597 2728 3444 2584 
Q 3303 2450 3106 2351 
Q 2909 2253 2672 2184 
Q 3000 1750 3217 1453 
Q 3434 1156 3750 731 
Q 3888 544 3998 455 
Q 4109 366 4219 309 
Q 4300 269 4422 247 
Q 4544 225 4625 222 
L 4625 0 
z
M 2981 3306 
Q 2981 3709 2750 3945 
Q 2519 4181 2097 4181 
L 1566 4181 
L 1566 2278 
L 1975 2278 
Q 2406 2278 2693 2554 
Q 2981 2831 2981 3306 
z
" transform="scale(0.015625)"/>
      <path id="Georgia-6c" d="M 1669 0 
L 166 0 
L 166 206 
Q 238 213 319 220 
Q 400 228 453 244 
Q 541 272 584 342 
Q 628 413 628 525 
L 628 4094 
Q 628 4206 579 4304 
Q 531 4403 453 4459 
Q 397 4497 247 4528 
Q 97 4559 6 4566 
L 6 4766 
L 1166 4838 
L 1209 4791 
L 1209 563 
Q 1209 453 1250 383 
Q 1291 313 1381 275 
Q 1450 244 1517 228 
Q 1584 213 1669 206 
L 1669 0 
z
" transform="scale(0.015625)"/>
     </defs>
     <use xlink:href="#Georgia-52"/>
     <use xlink:href="#Georgia-75" x="70.166016"/>
     <use xlink:href="#Georgia-72" x="127.685547"/>
     <use xlink:href="#Georgia-61" x="168.652344"/>
     <use xlink:href="#Georgia-6c" x="219.042969"/>
     <use xlink:href="#Georgia-20" x="247.65625"/>
     <use xlink:href="#Georgia-77" x="271.777344"/>
     <use xlink:href="#Georgia-69" x="345.507812"/>
     <use xlink:href="#Georgia-74" x="374.804688"/>
     <use xlink:href="#Georgia-68" x="409.326172"/>
     <use xlink:href="#Georgia-20" x="467.529297"/>
     <use xlink:href="#Georgia-77" x="491.650391"/>
     <use xlink:href="#Georgia-61" x="565.380859"/>
     <use xlink:href="#Georgia-74" x="615.771484"/>
     <use xlink:href="#Georgia-65" x="650.292969"/>
     <use xlink:href="#Georgia-72" x="698.632812"/>
     <use xlink:href="#Georgia-20" x="739.599609"/>
     <use xlink:href="#Georgia-28" x="763.720703"/>
     <use xlink:href="#Georgia-31" x="801.220703"/>
     <use xlink:href="#Georgia-31" x="844.189453"/>
     <use xlink:href="#Georgia-25" x="887.158203"/>
     <use xlink:href="#Georgia-29" x="968.896484"/>
    </g>
   </g>
   <g id="text_4">
    <!-- Rural without -->
    <g transform="translate(287.521342 43.876577) scale(0.1 -0.1)">
     <use xlink:href="#Georgia-52"/>
     <use xlink:href="#Georgia-75" x="70.166016"/>
     <use xlink:href="#Georgia-72" x="127.685547"/>
     <use xlink:href="#Georgia-61" x="168.652344"/>
     <use xlink:href="#Georgia-6c" x="219.042969"/>
     <use xlink:href="#Georgia-20" x="247.65625"/>
     <use xlink:href="#Georgia-77" x="271.777344"/>
     <use xlink:href="#Georgia-69" x="345.507812"/>
     <use xlink:href="#Georgia-74" x="374.804688"/>
     <use xlink:href="#Georgia-68" x="409.326172"/>
     <use xlink:href="#Georgia-6f" x="467.529297"/>
     <use xlink:href="#Georgia-75" x="521.435547"/>
     <use xlink:href="#Georgia-74" x="578.955078"/>
    </g>
   </g>
   <g id="text_5">
    <!-- water (7%) -->
    <g transform="translate(292.878142 53.190497) scale(0.1 -0.1)">
     <defs>
      <path id="Georgia-37" d="M 3216 3150 
L 988 -1141 
L 597 -1141 
L 2694 2828 
L 1466 2828 
Q 1194 2828 1041 2822 
Q 888 2816 759 2763 
Q 663 2722 586 2555 
Q 509 2388 469 2128 
L 278 2128 
L 278 3353 
L 3216 3353 
L 3216 3150 
z
" transform="scale(0.015625)"/>
     </defs>
     <use xlink:href="#Georgia-77"/>
     <use xlink:href="#Georgia-61" x="73.730469"/>
     <use xlink:href="#Georgia-74" x="124.121094"/>
     <use xlink:href="#Georgia-65" x="158.642578"/>
     <use xlink:href="#Georgia-72" x="206.982422"/>
     <use xlink:href="#Georgia-20" x="247.949219"/>
     <use xlink:href="#Georgia-28" x="272.070312"/>
     <use xlink:href="#Georgia-37" x="309.570312"/>
     <use xlink:href="#Georgia-25" x="359.814453"/>
     <use xlink:href="#Georgia-29" x="441.552734"/>
    </g>
   </g>
  </g>
 </g>
 <defs>
  <clipPath id="p86b9e06840">
   <rect x="0" y="-0" width="357.12" height="266.112"/>
  </clipPath>
 </defs>
</svg>
